HIERARCHY
ROOT Hips
{
	OFFSET 0.000000 0.000000 0.000000
	CHANNELS 6 Xposition Yposition Zposition Zrotation Yrotation Xrotation 
	JOINT LowerBack
	{
		OFFSET 0.000000 0.000000 0.000000
		CHANNELS 3 Zrotation Yrotation Xrotation
		JOINT Spine
		{
			OFFSET 0.028270 2.035590 -0.193380
			CHANNELS 3 Zrotation Yrotation Xrotation
			JOINT Spine1
			{
				OFFSET 0.056720 2.048850 -0.042750
				CHANNELS 3 Zrotation Yrotation Xrotation
				JOINT Neck
				{
					OFFSET 0.000000 0.000000 0.000000
					CHANNELS 3 Zrotation Yrotation Xrotation
					JOINT Neck1
					{
						OFFSET -0.054170 1.746240 0.172020
						CHANNELS 3 Zrotation Yrotation Xrotation
						JOINT Head
						{
							OFFSET 0.104070 1.761360 -0.123970
							CHANNELS 3 Zrotation Yrotation Xrotation
							End Site
							{
								OFFSET 0.000000 0.000000 0.000000
							}
						}
					}
				}
				JOINT LeftShoulder
				{
					OFFSET 0.000000 0.000000 0.000000
					CHANNELS 3 Zrotation Yrotation Xrotation
					JOINT LeftArm
					{
						OFFSET 3.362410 1.200890 -0.311210
						CHANNELS 3 Zrotation Yrotation Xrotation
						JOINT LeftForeArm
						{
							OFFSET 4.983000 -0.000000 -0.000000
							CHANNELS 3 Zrotation Yrotation Xrotation
							JOINT LeftHand
							{
								OFFSET 3.483560 -0.000000 -0.000000
								CHANNELS 3 Zrotation Yrotation Xrotation
								JOINT LeftFingerBase
								{
									OFFSET 0.000000 0.000000 0.000000
									CHANNELS 3 Zrotation Yrotation Xrotation
									JOINT LeftHandIndex1
									{
										OFFSET 0.715260 -0.000000 -0.000000
										CHANNELS 3 Zrotation Yrotation Xrotation
										End Site
										{
											OFFSET 0.000000 0.000000 0.000000
										}
									}
								}
								JOINT LThumb
								{
									OFFSET 0.000000 0.000000 0.000000
									CHANNELS 3 Zrotation Yrotation Xrotation
									End Site
									{
										OFFSET 0.000000 0.000000 0.000000
									}
								}
							}
						}
					}
				}
				JOINT RightShoulder
				{
					OFFSET 0.000000 0.000000 0.000000
					CHANNELS 3 Zrotation Yrotation Xrotation
					JOINT RightArm
					{
						OFFSET -3.136600 1.374050 -0.404650
						CHANNELS 3 Zrotation Yrotation Xrotation
						JOINT RightForeArm
						{
							OFFSET -5.241900 -0.000000 -0.000000
							CHANNELS 3 Zrotation Yrotation Xrotation
							JOINT RightHand
							{
								OFFSET -3.444170 -0.000000 -0.000000
								CHANNELS 3 Zrotation Yrotation Xrotation
								JOINT RightFingerBase
								{
									OFFSET 0.000000 0.000000 0.000000
									CHANNELS 3 Zrotation Yrotation Xrotation
									JOINT RightHandIndex1
									{
										OFFSET -0.622530 -0.000000 -0.000000
										CHANNELS 3 Zrotation Yrotation Xrotation
										End Site
										{
											OFFSET 0.000000 0.000000 0.000000
										}
									}
								}
								JOINT RThumb
								{
									OFFSET 0.000000 0.000000 0.000000
									CHANNELS 3 Zrotation Yrotation Xrotation
									End Site
									{
										OFFSET 0.000000 0.000000 0.000000
									}
								}
							}
						}
					}
				}
			}
		}
	}
}
}
MOTION
Frames: 11
Frame Time: 0.008333
24.930853 15.384749 4.293676 54.985386 -89.191789 -27.766492 12.818690 -5.265940 -1.199367 1.748138 -6.140479 -2.863372 -8.516129 -6.234619 1.683278 9.481688 -8.520956 -6.709105 -4.351609 -0.328953 0.108418 0.000000 0.000000 0.000000 0.373715 -0.656673 3.896765 -23.369853 -36.870870 17.255364 -0.969719 -74.982539 0.060301 -8.042125 -3.150639 0.255003 0.050765 0.437592 -0.000000 0.000000 0.000000 0.000000 0.000000 0.000000 0.000000 19.566456 -9.526593 2.101856 65.969277 -13.585799 -15.785751 3.847858 17.855281 0.021390 3.941679 12.496660 0.427212 0.071555 -0.076010 -0.000000 0.000000 0.000000 0.000000 0.000000 0.000000 0.000000 
24.678229 15.402509 4.259218 70.770621 -88.647540 -43.424136 12.696966 -5.297979 -1.271593 1.716495 -6.174478 -2.905409 -8.544567 -6.277288 1.618317 9.495406 -7.999883 -6.634963 -4.432237 -0.334839 0.122576 0.000000 0.000000 0.000000 0.098066 -0.676399 4.026302 -23.488805 -35.759207 17.478282 -0.998705 -75.137485 0.059999 -8.058692 -3.103203 0.251346 0.040938 0.429781 -0.000000 0.000000 0.000000 0.000000 0.000000 0.000000 0.000000 19.855639 -9.015833 2.106888 65.579092 -12.747162 -15.594342 3.815205 17.718447 0.021013 3.758690 12.709580 0.414216 0.069465 -0.076922 -0.000000 0.000000 0.000000 0.000000 0.000000 0.000000 0.000000 
24.426325 15.427505 4.222431 81.693687 -88.449177 -54.201689 12.753940 -5.218068 -1.290522 1.708243 -6.103834 -2.935449 -8.589517 -6.213119 1.545773 9.524316 -7.449426 -6.549748 -4.513601 -0.340577 0.139249 0.000000 0.000000 0.000000 -0.168107 -0.635517 4.141588 -23.781694 -34.639013 17.845548 -1.038432 -75.127821 0.059418 -8.081174 -3.063583 0.248191 0.030600 0.419653 -0.000000 0.000000 0.000000 0.000000 0.000000 0.000000 0.000000 20.155670 -8.428412 2.111867 65.198725 -11.846721 -15.326239 3.785201 17.587552 0.020794 3.531070 12.998751 0.397822 0.067875 -0.078381 -0.000000 0.000000 0.000000 0.000000 0.000000 0.000000 0.000000 
24.175837 15.459529 4.183083 89.004004 -88.384094 -61.372997 12.908384 -5.104912 -1.292407 1.717404 -6.004539 -2.959542 -8.638349 -6.118143 1.474268 9.570661 -6.879117 -6.450253 -4.594531 -0.346213 0.159844 0.000000 0.000000 0.000000 -0.412962 -0.573328 4.251725 -24.237804 -33.538800 18.352599 -1.090903 -74.928607 0.058646 -8.114913 -3.031445 0.245841 0.019807 0.407545 -0.000000 0.000000 0.000000 0.000000 0.000000 0.000000 0.000000 20.471655 -7.811841 2.109868 64.831685 -10.888248 -14.997032 3.754062 17.472424 0.020587 3.251418 13.315414 0.374828 0.066557 -0.080154 0.000000 0.000000 0.000000 0.000000 0.000000 0.000000 0.000000 
23.927731 15.498235 4.140681 93.751787 -88.351306 -65.995171 13.056755 -4.985555 -1.287918 1.725525 -5.898700 -2.980782 -8.682268 -6.014855 1.402305 9.638833 -6.297883 -6.331587 -4.674495 -0.351812 0.186100 0.000000 0.000000 0.000000 -0.588880 -0.543156 4.354215 -24.903771 -32.399272 18.974232 -1.156312 -74.547390 0.057742 -8.177143 -3.001554 0.244295 0.009026 0.393290 -0.000000 0.000000 0.000000 0.000000 0.000000 0.000000 0.000000 20.809354 -7.188450 2.102283 64.479890 -9.868530 -14.614282 3.718576 17.367792 0.020325 2.904193 13.635570 0.342233 0.065460 -0.082241 0.000000 0.000000 0.000000 0.000000 0.000000 0.000000 0.000000 
23.682381 15.543505 4.096006 97.009969 -88.320502 -69.139037 13.162163 -4.862376 -1.281611 1.725364 -5.787042 -2.998103 -8.718625 -5.903965 1.339323 9.723511 -5.711003 -6.204250 -4.750963 -0.357087 0.214990 0.000000 0.000000 0.000000 -0.741797 -0.488532 4.451416 -25.682187 -31.316036 19.701584 -1.237164 -73.953564 0.056656 -8.251517 -2.979616 0.243451 -0.001998 0.377381 -0.000000 0.000000 0.000000 0.000000 0.000000 0.000000 0.000000 21.159303 -6.562772 2.087134 64.143348 -8.764739 -14.243283 3.681099 17.257040 0.020000 2.549003 13.927813 0.306137 0.064384 -0.084646 0.000000 0.000000 0.000000 0.000000 0.000000 0.000000 0.000000 
23.440517 15.594998 4.049049 98.996691 -88.272000 -71.021922 13.194152 -4.737176 -1.272968 1.712860 -5.669253 -3.012999 -8.735964 -5.786192 1.280694 9.810805 -5.128479 -6.068612 -4.820160 -0.361831 0.246617 0.000000 0.000000 0.000000 -0.851828 -0.443152 4.540642 -26.599406 -30.244383 20.502659 -1.333430 -73.157823 0.055405 -8.345651 -2.960677 0.243307 -0.012879 0.359874 0.000000 0.000000 0.000000 0.000000 0.000000 0.000000 0.000000 21.502562 -5.938018 2.073239 63.838424 -7.608251 -13.733624 3.629041 17.312693 0.019091 2.110358 13.824684 0.250535 0.063310 -0.087142 0.000000 0.000000 0.000000 0.000000 0.000000 0.000000 0.000000 
23.202277 15.652444 4.000629 99.902361 -88.211607 -71.831457 13.162138 -4.614501 -1.265057 1.687165 -5.550919 -3.025767 -8.749830 -5.666797 1.227836 9.920713 -4.540790 -5.923546 -4.886951 -0.366394 0.281082 0.000000 0.000000 0.000000 -0.912659 -0.398741 4.620209 -27.627106 -29.174199 21.346561 -1.445344 -72.173157 0.054009 -8.456825 -2.946855 0.243863 -0.023700 0.341150 0.000000 0.000000 0.000000 0.000000 0.000000 0.000000 0.000000 21.856605 -5.319395 2.054101 63.532078 -6.311783 -13.430854 3.589148 17.166396 0.018640 1.801420 14.001545 0.215737 0.062148 -0.090323 0.000000 0.000000 0.000000 0.000000 0.000000 0.000000 0.000000 
22.967856 15.715632 3.951393 99.605981 -88.149416 -71.443938 13.079132 -4.494826 -1.258716 1.653213 -5.432792 -3.037289 -8.752732 -5.547432 1.179357 10.035731 -3.949095 -5.772625 -4.948031 -0.370554 0.317351 0.000000 0.000000 0.000000 -0.948300 -0.350757 4.692792 -28.727685 -28.121470 22.211255 -1.572820 -71.004244 0.052457 -8.575593 -2.937446 0.244917 -0.034513 0.321613 0.000000 0.000000 0.000000 0.000000 0.000000 0.000000 0.000000 22.200007 -4.700137 2.035568 63.236128 -4.916662 -13.184414 3.549852 16.998014 0.018149 1.547466 14.116726 0.186037 0.060853 -0.093879 0.000000 0.000000 0.000000 0.000000 0.000000 0.000000 0.000000 
22.737025 15.784304 3.902016 97.773243 -88.105316 -69.523071 12.972734 -4.381136 -1.255413 1.617655 -5.319234 -3.048739 -8.745032 -5.432981 1.132728 10.149850 -3.350901 -5.615421 -5.003068 -0.374326 0.355477 0.000000 0.000000 0.000000 -0.966960 -0.307175 4.759416 -29.884620 -27.073017 23.068955 -1.714896 -69.667395 0.050769 -8.697447 -2.931771 0.246168 -0.045310 0.301642 0.000000 0.000000 0.000000 0.000000 0.000000 0.000000 0.000000 22.522490 -4.078598 2.019789 62.945576 -3.427132 -12.988166 3.512709 16.809041 0.017651 1.364457 14.176046 0.164137 0.059393 -0.097786 0.000000 0.000000 0.000000 0.000000 0.000000 0.000000 0.000000 
22.509940 15.858256 3.853107 93.821994 -88.110104 -65.486645 12.886941 -4.274904 -1.255729 1.590128 -5.214127 -3.061107 -8.729064 -5.327720 1.084859 10.257459 -2.736014 -5.449838 -5.052329 -0.377768 0.395953 0.000000 0.000000 0.000000 -0.985115 -0.269548 4.823082 -31.068054 -26.027094 23.900159 -1.870242 -68.179420 0.048962 -8.814387 -2.928656 0.247520 -0.056191 0.281609 0.000000 0.000000 0.000000 0.000000 0.000000 0.000000 0.000000 22.815765 -3.444557 2.007782 62.656039 -1.863747 -12.838849 3.479241 16.614440 0.017182 1.268828 14.188458 0.152536 0.057708 -0.101991 0.000000 0.000000 0.000000 0.000000 0.000000 0.000000 0.000000 
